HIERARCHY
ROOT hip
{
  OFFSET 0 0 0
  CHANNELS 6 Xposition Yposition Zposition Zrotation Yrotation Xrotation
  JOINT abdomen
  {
    OFFSET 0 20.6881 -0.73152
    CHANNELS 3 Zrotation Xrotation Yrotation
    JOINT chest
    {
      OFFSET 0 11.7043 -0.48768
      CHANNELS 3 Zrotation Xrotation Yrotation
      JOINT neck
      {
        OFFSET 0 22.1894 -2.19456
        CHANNELS 3 Zrotation Xrotation Yrotation
        JOINT head
        {
          OFFSET -0.24384 7.07133 1.2192
          CHANNELS 3 Zrotation Xrotation Yrotation
          JOINT leftEye
          {
            OFFSET 4.14528 8.04674 8.04672
            CHANNELS 3 Zrotation Xrotation Yrotation
            End Site
            {
              OFFSET 1 0 0
            }
          }
          JOINT rightEye
          {
            OFFSET -3.6576 8.04674 8.04672
            CHANNELS 3 Zrotation Xrotation Yrotation
            End Site
            {
              OFFSET 1 0 0
            }
          }
        }
      }
      JOINT rCollar
      {
        OFFSET -2.68224 19.2634 -4.8768
        CHANNELS 3 Zrotation Xrotation Yrotation
        JOINT rShldr
        {
          OFFSET -8.77824 -1.95073 1.46304
          CHANNELS 3 Zrotation Xrotation Yrotation
          JOINT rForeArm
          {
            OFFSET -28.1742 -1.7115 0.48768
            CHANNELS 3 Zrotation Xrotation Yrotation
            JOINT rHand
            {
              OFFSET -22.5879 0.773209 7.07136
              CHANNELS 3 Zrotation Xrotation Yrotation
              JOINT rThumb1
              {
                OFFSET -1.2192 -0.487915 3.41376
                CHANNELS 3 Zrotation Xrotation Yrotation
                JOINT rThumb2
                {
                  OFFSET -3.37035 -0.52449 3.41376
                  CHANNELS 3 Zrotation Xrotation Yrotation
                  End Site
                  {
                    OFFSET -1.78271 -1.18214 1.43049
                  }
                }
              }
              JOINT rIndex1
              {
                OFFSET -7.75947 0.938293 5.60832
                CHANNELS 3 Zrotation Xrotation Yrotation
                JOINT rIndex2
                {
                  OFFSET -2.54057 -0.884171 1.56538
                  CHANNELS 3 Zrotation Xrotation Yrotation
                  End Site
                  {
                    OFFSET -1.62519 -0.234802 1.16502
                  }
                }
              }
              JOINT rMid1
              {
                OFFSET -8.24714 1.18213 3.41376
                CHANNELS 3 Zrotation Xrotation Yrotation
                JOINT rMid2
                {
                  OFFSET -3.10165 -0.590103 1.0647
                  CHANNELS 3 Zrotation Xrotation Yrotation
                  End Site
                  {
                    OFFSET -2.48547 -0.328903 0.83742
                  }
                }
              }
              JOINT rRing1
              {
                OFFSET -8.82822 0.546677 1.51678
                CHANNELS 3 Zrotation Xrotation Yrotation
                JOINT rRing2
                {
                  OFFSET -2.60934 -0.819778 -0.0198488
                  CHANNELS 3 Zrotation Xrotation Yrotation
                  End Site
                  {
                    OFFSET -2.33842 -0.294052 0.168128
                  }
                }
              }
              JOINT rPinky1
              {
                OFFSET -8.27202 -0.0477905 -0.4584
                CHANNELS 3 Zrotation Xrotation Yrotation
                JOINT rPinky2
                {
                  OFFSET -1.82734 -0.647385 -0.700984
                  CHANNELS 3 Zrotation Xrotation Yrotation
                  End Site
                  {
                    OFFSET -1.69225 -0.51767 -0.607171
                  }
                }
              }
            }
          }
        }
      }
      JOINT lCollar
      {
        OFFSET 2.68224 19.2634 -4.8768
        CHANNELS 3 Zrotation Xrotation Yrotation
        JOINT lShldr
        {
          OFFSET 8.77824 -1.95073 1.46304
          CHANNELS 3 Zrotation Xrotation Yrotation
          JOINT lForeArm
          {
            OFFSET 28.1742 -1.7115 0.48768
            CHANNELS 3 Zrotation Xrotation Yrotation
            JOINT lHand
            {
              OFFSET 22.5879 0.773209 7.07136
              CHANNELS 3 Zrotation Xrotation Yrotation
              JOINT lThumb1
              {
                OFFSET 1.2192 -0.487915 3.41376
                CHANNELS 3 Zrotation Xrotation Yrotation
                JOINT lThumb2
                {
                  OFFSET 3.37035 -0.52449 3.41376
                  CHANNELS 3 Zrotation Xrotation Yrotation
                  End Site
                  {
                    OFFSET 1.78271 -1.18214 1.43049
                  }
                }
              }
              JOINT lIndex1
              {
                OFFSET 7.75947 0.938293 5.60832
                CHANNELS 3 Zrotation Xrotation Yrotation
                JOINT lIndex2
                {
                  OFFSET 2.54057 -0.884171 1.56538
                  CHANNELS 3 Zrotation Xrotation Yrotation
                  End Site
                  {
                    OFFSET 1.62519 -0.234802 1.16502
                  }
                }
              }
              JOINT lMid1
              {
                OFFSET 8.24714 1.18213 3.41376
                CHANNELS 3 Zrotation Xrotation Yrotation
                JOINT lMid2
                {
                  OFFSET 3.10165 -0.590103 1.0647
                  CHANNELS 3 Zrotation Xrotation Yrotation
                  End Site
                  {
                    OFFSET 2.48547 -0.328903 0.83742
                  }
                }
              }
              JOINT lRing1
              {
                OFFSET 8.82822 0.546677 1.51678
                CHANNELS 3 Zrotation Xrotation Yrotation
                JOINT lRing2
                {
                  OFFSET 2.60934 -0.819778 -0.0198488
                  CHANNELS 3 Zrotation Xrotation Yrotation
                  End Site
                  {
                    OFFSET 2.33842 -0.294052 0.168128
                  }
                }
              }
              JOINT lPinky1
              {
                OFFSET 8.27202 -0.0477905 -0.4584
                CHANNELS 3 Zrotation Xrotation Yrotation
                JOINT lPinky2
                {
                  OFFSET 1.82734 -0.647385 -0.700984
                  CHANNELS 3 Zrotation Xrotation Yrotation
                  End Site
                  {
                    OFFSET 1.69225 -0.51767 -0.607171
                  }
                }
              }
            }
          }
        }
      }
    }
  }
  JOINT rButtock
  {
    OFFSET -8.77824 4.35084 1.2192
    CHANNELS 3 Zrotation Xrotation Yrotation
    JOINT rThigh
    {
      OFFSET 0 -1.70687 -2.19456
      CHANNELS 3 Zrotation Xrotation Yrotation
      JOINT rShin
      {
        OFFSET 0 -36.8199 0.73152
        CHANNELS 3 Zrotation Xrotation Yrotation
        JOINT rFoot
        {
          OFFSET 0.73152 -45.1104 -5.12064
          CHANNELS 3 Zrotation Xrotation Yrotation
          End Site
          {
            OFFSET -1.1221 -3.69964 12.103
          }
        }
      }
    }
  }
  JOINT lButtock
  {
    OFFSET 8.77824 4.35084 1.2192
    CHANNELS 3 Zrotation Xrotation Yrotation
    JOINT lThigh
    {
      OFFSET 0 -1.70687 -2.19456
      CHANNELS 3 Zrotation Xrotation Yrotation
      JOINT lShin
      {
        OFFSET 0 -36.8199 0.73152
        CHANNELS 3 Zrotation Xrotation Yrotation
        JOINT lFoot
        {
          OFFSET -0.73152 -45.1104 -5.12064
          CHANNELS 3 Zrotation Xrotation Yrotation
          End Site
          {
            OFFSET 1.1221 -3.69964 12.103
          }
        }
      }
    }
  }
}
MOTION
Frames:	4
Frame Time:	0.03333
0.03916453570127487 61.81463003158569 -0.0012573087587952614 -6.444138340387168 5.236504972955084 2.513781328027612 -2.3501509129684397 14.762871617355819 3.8962737280709576 2.5929910318322498 -9.713337523401131 1.2265869289354576 -4.858295200496675 15.28894644760854 -3.4845129991923884 8.45926954178354 -24.926529489151413 -5.169026545936766 0.011833062613209083 0.017548516885908153 -0.0034533676567422475 -0.0038123127739249293 -0.014342490122527635 0.0181871128928779 0.05872369864752178 -0.06480515501019833 0.027004183415116862 49.29057923977394 30.1332817311951 15.789703474155317 -23.872651790785955 -29.474984683894686 66.45797285065585 -4.720541810881743 -11.25577438422937 -5.136417088405009 0.0030371930248342636 -0.03744229661721654 0.022831268002516333 0.026680106280244965 -0.0003333986088612474 -0.019114231031427793 -0.07170567378432105 0.018817384606796692 0.0190359506602371 7.68554229750991 5.431118406749904 0.41457850207631664 0.023785813619452062 -0.0044310585436193265 -0.002339339790729367 2.9135604109980977 0.9613275678947268 0.08208441303241988 -0.03728920433027305 -0.00903415247695835 0.02663869825840176 10.215808073655937 0.7035563353401514 0.03582204768004258 -0.02515617368253876 0.02142854458215141 -0.008249881341596925 2.16051135099327 -0.7364521805693724 -0.2145912835498573 -0.00802675293523436 -0.0038590035202043134 -0.0037598056946804566 -58.42735744344584 32.160898518394255 -25.671598967214962 23.00754344560673 -27.443421754902555 -62.422779051282355 5.091694717267059 -13.622591172216053 4.107881099407592 -0.006561037028031936 0.027797856065746973 -0.008436297481170672 -0.025434770695481234 -0.008339687657012014 -0.008879992972957046 -0.015428650283118335 0.006077561020415526 -0.007164815078490485 -7.698537586179506 5.482058384466682 -0.4276979347701624 0.01507625521062799 -0.04652890281256647 0.0001962078560791944 -2.8954849556898936 0.9478018723473975 -0.09539130240247078 0.0030274813496081517 -0.002572313274450271 -0.054938333104306666 -10.222689489244724 0.7071508291125764 -0.04379869477441255 -0.021042425450634127 -0.016605870739167056 -0.0215706978942523 -2.2398836986775192 -0.7234178317554609 0.18266236365544264 -0.042900044650879855 0.010354726864298003 0.005346117129415918 -31.80187303976712 -35.67812833715442 -27.743029710392456 -5.354948564012744 62.139749672455366 6.3186541049556935 -4.74780877982208 -10.183707038330523 -10.377074816375462 0.015633289153954264 0.03266313854976457 0.06664236917522598 37.717028596862434 -34.246295290877136 31.05573975974034 5.407680612613005 63.34321534383327 -6.5744481044672565 5.0123035865625925 -10.125345633193703 13.913745914834417
0.06120717152953148 62.78476119041443 -0.07894965820014477 -6.857898393701847 5.330380800455032 1.8863057228002922 -2.4529868814423863 14.883876956239057 3.8481580335759795 2.607520338300748 -9.786149901274406 1.1703487521351594 -4.967246963042133 15.428736514256606 -3.556130947734557 8.431637157722607 -24.908330450107915 -5.205606477810416 -0.015267447146535456 0.00877503217532099 -0.02963999276945379 -0.016804079627229653 0.043414603355305115 0.0014897282910032498 0.07664524791577576 -0.09854548909726796 0.05786142728544733 49.35419562170344 30.21057556693755 16.300019350445528 -24.0873604948926 -29.486616496051216 66.43997530219286 -4.871506920785595 -11.57185504845005 -5.316073261691147 0.03610694127362616 -0.12266310049999454 0.0549504726983393 0.04860485343342722 0.026553427615482385 -0.003429555376139762 -0.1083263733495791 0.05998752376781214 0.01293557787521079 7.838737464177773 5.463045699138305 0.3792619417557079 0.07608830735394205 -0.003476272802845591 -0.04265981409116581 2.9352846814269693 0.943388716369923 0.06142213029777928 -0.03158186090721337 -0.020717778021646958 -0.026632828564583783 10.42860090970039 0.7531143736887657 0.09082014493958686 -0.013537701739229725 0.05256364174853719 -0.07762459298909245 2.1712567326615813 -0.7369408592601456 -0.21956723644277026 -0.003780402983896276 -0.05436328987312977 0.01868014049316175 -58.723821804370246 32.415183046099244 -25.448885281401065 23.20551306360496 -27.536447223850836 -62.46363724289737 4.897816809468485 -13.396527278614263 4.282385175625425 0.0004210171293078172 0.05893999686471433 -0.017212236790990806 0.004281247949128618 0.040105883630536396 0.00974337157272897 -0.020499532133323894 0.02777877956083854 0.0392023509889642 -7.780288120355388 5.584562875322471 -0.4217543895317819 0.06836133569024777 -0.08992739119029859 -0.019930331915538536 -2.9011294667086744 0.9495683300214921 -0.1290522889012919 0.017349907791448873 -0.04834023696394212 -0.030862609971099297 -10.34856987564806 0.6870900832725729 -0.014921828902362232 -0.02466896241522 -0.0435176431622371 0.0032338811285894747 -2.2748316422263586 -0.6672267725882651 0.18296321214404054 -0.04350259540172192 0.014204979204628237 -0.038715299804204115 -31.56105423001081 -35.66856265722181 -27.120230863755893 -4.830877113620952 62.036606985799004 5.797559336381557 -4.848144258729567 -10.246555023978395 -10.337937832431288 -0.00467094225778958 0.03410382154685463 0.07951855642116938 37.9164018187351 -34.18812598481072 30.652051674130494 5.286054580288941 63.32589398409812 -6.475320288382392 4.97873192613151 -10.037673325007418 13.86201662338168
-0.0170108862221241 67.155921459198 -0.6688113790005445 -11.00466760203573 2.5880504571848033 -5.636832605493287 -2.3201411961895193 11.148951933157663 1.8477345773401723 3.115622166082816 -7.334744635511702 0.6724472249091235 -5.299828510523918 14.37715205190498 -5.432662883275973 8.974065168395631 -21.079121495723665 -10.210900582737283 -0.032632616141911076 0.06457789113773672 0.13962746278909471 0.04457338763668009 -0.006429022277980283 0.2500518648124181 0.15804338701916804 -0.023407645255015496 -0.013822525296693885 66.39999137479161 33.54689758024617 -4.944579699620977 -17.176100394526383 -9.836221164306124 29.969568926979065 -0.38730342228634007 1.7164239771032657 0.7796112388001839 0.09573940192630342 -0.25084814213967993 -0.03045034402166556 0.1366746999737468 0.12550323189510335 -0.1501169925080079 -0.059019984783197525 0.09430271432307355 0.011949095787819964 7.433605647332112 5.237290444709635 0.49810099009414155 -0.1095748038638105 -0.010775237065503358 -0.08331702205376917 2.780062656122906 1.010924773109363 0.054795993029220655 0.10533336311093836 0.16680960131354883 0.07348184313364171 9.917339052210135 0.6755367649306435 -0.0021521232383622598 -0.11177497855020085 -0.1566511356661829 0.0849313079156326 2.0308005091260273 -0.6495791645985389 -0.10208075232298425 -0.0569766910043059 0.04586882906230821 -0.05378544519717611 -73.2019035616405 27.750734163776233 -4.9243431297706985 12.484593717806364 -3.9825343215331643 -20.02551700492501 -0.979460119315524 25.307128120272036 -5.974379273614847 0.09451791864278185 -0.15972360021477794 -0.13287919586848243 0.13750798305248835 0.022070022075177255 -0.08684873678276823 -0.046608890731049665 0.10343288965480876 0.04341390966421753 -7.701054510888656 5.106566173524292 -0.19168184189785606 0.07619508242057639 -0.19818204755359256 0.013092939030385536 -2.792231918789753 0.8643814636411525 -0.1546587748213755 0.02144465955972441 0.24932645069779513 -0.04445463305857178 -9.795003533986035 0.7718779705558485 0.04650323624232603 0.055556705348030824 -0.24746314307570394 -0.0028107295651660287 -2.2907540938421276 -0.7594428641198998 0.15377567938646045 -0.22331271474844955 0.011746057742570756 -0.06154790182804271 -9.086723162339469 -27.96380874512395 -2.5418087958433477 -2.8319996280150943 50.31014889793842 3.247515253389878 -3.3184495426848106 -14.9161188642161 -6.867673248177781 0.12185665793025702 0.11269678728388813 0.28951581738267906 17.647868390688334 -29.705039115519057 7.875498396064428 2.4082098687910753 49.91730715273055 -2.8745149942774852 2.747252775227692 -9.506276069843965 9.732701109698118
-0.04292931407690048 75.03701448440552 -1.8596123438328505 0.8366749079947017 3.63414771631197 4.1586806313595615 -2.9363952274973313 7.921552654090531 3.1576017893821837 2.6622956806799 -7.015955801285112 0.7277493456280126 -5.6773407499133395 13.61743523316634 -3.87353944341857 8.537254934179453 -19.824846047110036 -9.874926138785295 -0.18586225392074074 0.10024705997424738 -0.039587416243636896 -0.02081500149561386 -0.06480232688499511 0.07776394485641658 0.13207316684535483 -0.021510186687074218 -0.011225479266928764 72.54363725019135 31.079785440713373 -2.91874217670061 -15.766516689470416 -7.180174039499728 25.082968141901386 -0.06297188954828459 5.872769110653506 0.6377300670490362 0.22824048279120218 -0.18767209396823545 0.2587999230766028 0.2661155359253625 0.028772331961237387 -0.08425337161986916 0.2057067282239781 0.16733536579708114 0.20029711167962222 7.919514696396928 5.341086695092203 0.3873671351446916 -0.17954806419818128 -0.18211560167629784 -0.031307906288472395 2.8731747830962817 0.9403950658010476 -0.003286655012098401 0.2281408580788552 0.1334109367675385 0.07552246886988881 10.155524824041404 0.9815983954125611 0.08216330705341882 -0.08710017312158932 -0.2366546355184232 -0.16195895304343652 2.1376976653917814 -0.8504058293822487 0.004696528786750682 -0.20215449624704254 -0.05924095207501802 0.1218406496743898 -76.89556741194585 31.80613849290379 -6.513552272261538 10.496860112718206 -4.062108586684752 -18.237047338682803 0.24754937421397535 30.62741859688884 -3.814320849540913 0.12039430375678671 0.08024367705110144 -0.0846805786081123 0.35223408279717405 0.005614282095618255 -0.06840199666015051 -0.01445694915197824 0.1945478266261904 0.16664386250447025 -7.639042369640464 5.445761905443588 -0.3610611951649164 0.22667514217165277 0.016159106998339463 0.07103866312318699 -2.756266703941405 0.8783951975490205 -0.24066825210987838 -0.021091570796146486 -0.01939987167695184 0.15459266072464387 -9.969427782367944 0.7374938377786523 0.1656891834854023 0.03988753102050755 -0.31603039829725704 0.12695870251855076 -2.439771746058881 -0.8970892118639338 0.20387074135856692 0.005428933173102323 0.01015873245163037 0.186293302890392 -12.660191051178222 -26.88517502611178 -2.848232853238099 -2.31069483112398 50.358311976870766 1.9671642769592534 -0.3806020995760584 -16.856816371584966 -2.507738531602855 -0.11325366114465572 0.18344607450184872 0.2741385002400416 16.95095516136796 -29.89229899689871 8.051054748301265 1.697060604249691 51.026495722994774 -2.9711771120719748 1.2368896289681872 -11.837812369446592 4.8841700915068
